<svg xmlns="http://www.w3.org/2000/svg" viewBox="0 0 196.96 68.34"><title>Uber logo</title><path d="M440.11,537.15c9.31,0,16.51-7.2,16.51-17.85V477.83H466.7V545h-10v-6.24A24.25,24.25,0,0,1,439,546.17c-14.4,0-25.44-10.46-25.44-26.3v-42H423.6V519.3c0,10.84,7.1,17.85,16.51,17.85" transform="translate(-413.52 -477.83)"/><path d="M474.18,477.83h9.69v24.48A24.21,24.21,0,0,1,501.25,495a25.58,25.58,0,1,1,0,51.16,24.42,24.42,0,0,1-17.47-7.29V545h-9.6Zm26.4,59.8a17,17,0,1,0-16.89-17,16.92,16.92,0,0,0,16.89,17" transform="translate(-413.52 -477.83)"/><path d="M556,495.11c14.11,0,24.48,10.85,24.48,25.44v3.17H540.6a16.42,16.42,0,0,0,16.22,13.92,16.84,16.84,0,0,0,14.11-7.2l7,5.18a25.66,25.66,0,0,1-21.12,10.46c-14.68,0-26-10.94-26-25.53A25.17,25.17,0,0,1,556,495.11M540.8,516h29.85c-1.63-7.49-7.68-12.48-14.88-12.48s-13.25,5-15,12.48" transform="translate(-413.52 -477.83)"/><path d="M606.45,504.71c-6.33,0-10.94,4.9-10.94,12.48V545h-9.7v-49h9.6v6a13.09,13.09,0,0,1,11.71-6.43h3.36v9Z" transform="translate(-413.52 -477.83)"/></svg>